# xmcd CD database file
#
# Track frame offsets:
#	150
#	23744
#	44297
#	64245
#	75483
#	93897
#	126337
#
# Disc length: 1944 seconds
#
# Revision: 0
# Processed by: cddbd v1.5.1PL2 Copyright (c) Steve Scherf et al.
# Submitted via: CDex 1.51
#
DISCID=50079607
DTITLE=Eddie Higgins - Eddie Higgins
DYEAR=1961
DGENRE=Jazz
TTITLE0=Zarac, The Evil One
TTITLE1=Falling In Love With Love
TTITLE2=You Leave Me Breathless
TTITLE3=Ab's Blues
TTITLE4=Blues for Big Scotia
TTITLE5=Foot's Bag
TTITLE6=Satin Doll
EXTD=YEAR: 1961
EXTT0=
EXTT1=
EXTT2=
EXTT3=
EXTT4=
EXTT5=
EXTT6=
PLAYORDER=
